<svg width="209" height="81" viewBox="0 0 209 81" fill="none" xmlns="http://www.w3.org/2000/svg">
<path d="M110.121 23.3C105.547 19.6311 99.4519 17.3286 91.7321 17.3286C75.4252 17.3286 62.1985 31.4397 62.1985 48.8411C62.1985 66.2425 75.4252 80.3708 91.7321 80.3708C99.4656 80.3708 105.547 78.0717 110.121 74.3994V79.2179H125.977V18.4437H110.121V23.3ZM94.1207 65.771C85.2445 65.771 78.0581 58.1991 78.0581 48.8446C78.0581 39.4899 85.2445 31.9318 94.1207 31.9318C98.608 31.9318 102.912 33.7145 106.085 36.8874C109.258 40.0605 111.04 44.364 111.04 48.8515C111.04 53.3388 109.258 57.6422 106.085 60.8154C102.912 63.9883 98.608 65.771 94.1207 65.771ZM189.306 79.2316H205.161V30.4656H189.306V79.2316ZM186.207 14.7645C186.207 17.6882 187.369 20.4922 189.436 22.5594C191.503 24.6268 194.308 25.7884 197.231 25.7884C200.155 25.7884 202.958 24.6268 205.027 22.5594C207.094 20.4922 208.256 17.6882 208.256 14.7645C208.256 6.32877 201.4 0.446855 191.477 0.247235C179.948 0.0304064 165.402 6.29092 158.891 25.544V18.4437H143.045V79.2316H158.894V43.8953C158.894 21.135 171.88 2.65645 191.38 2.85262C193.19 2.88268 194.984 3.18076 196.704 3.73716C193.875 3.87594 191.206 5.09851 189.251 7.15151C187.299 9.20449 186.209 11.9305 186.211 14.7645H186.207ZM63.8094 18.4437H41.4139L16.5887 41.992V0.928698H0.732666V79.2316H16.5887V57.0943L41.4139 79.2316H63.6854L31.0646 48.9031L63.8094 18.4437Z" fill="white"/>
<path d="M32.9804 7.06514H36.811V5.32017H32.9804V2.67349H37.2584V0.928532H31.1115V11.5635H37.4202V9.81852H32.9804V7.06514ZM44.9577 9.98373C42.7859 9.98373 41.2819 8.46593 41.2819 6.246C41.2819 3.9366 42.7686 2.50828 44.7443 2.50828C45.6026 2.48372 46.4465 2.73326 47.1534 3.22073L47.9898 1.84403C47.0765 1.10407 45.9255 0.721216 44.7512 0.76677C41.2405 0.76677 39.3097 3.19664 39.3097 6.25288C39.3097 9.56727 41.5469 11.739 44.7959 11.739C46.1726 11.739 47.5492 11.2537 48.2032 10.5378L47.4873 9.1405C46.7605 9.69353 45.871 9.99007 44.9577 9.98373ZM52.1853 3.05552C51.7138 9.46746 50.6331 9.81852 49.8138 9.71183L49.7691 11.5635C51.8652 11.8698 53.2488 10.8751 53.8717 4.68002L54.0851 2.67349H57.1827V11.5635H59.0377V0.928532H52.3299L52.1853 3.05552ZM64.104 8.50033V0.928532H62.2316V11.5635H63.8733L69.4422 4.02608V11.5635H71.311V0.928532H69.6693L64.104 8.50033ZM84.6787 0.76677C81.4124 0.76677 79.1478 3.17599 79.1478 6.25288C79.1478 9.56727 81.5191 11.739 84.6787 11.739C87.8382 11.739 90.2268 9.44337 90.2268 6.25288C90.2164 2.93162 87.8314 0.759888 84.6683 0.759888L84.6787 0.76677ZM84.6787 9.99061C82.6893 9.99061 81.1233 8.37988 81.1233 6.25288C81.1233 4.05019 82.6445 2.51517 84.6787 2.51517C86.7128 2.51517 88.2511 4.05019 88.2511 6.25288C88.2409 8.34201 86.9021 9.98373 84.6683 9.98373L84.6787 9.99061ZM95.9159 4.95536C95.4384 4.95698 94.9616 4.98686 94.4876 5.04484V2.67349H98.8346V0.928532H92.6187V11.5635C93.2418 11.5635 94.1538 11.6254 95.3722 11.6254C97.9844 11.6254 99.4746 10.3657 99.4746 8.1596C99.4885 6.20126 98.1358 4.95536 95.9159 4.95536ZM95.6715 9.87703C95.2793 9.87703 94.9144 9.84949 94.4876 9.81852V6.77947C94.9109 6.72291 95.3374 6.69302 95.7645 6.68999C97.0723 6.68999 97.6333 7.37833 97.6333 8.2835C97.6333 9.18869 97.0551 9.87703 95.6715 9.87703ZM106.417 7.12365L102.83 0.928532H100.586L105.422 8.99595L104.124 11.5979H106.114L111.435 0.928532H109.442L106.417 7.12365ZM118.074 5.95346V5.92249C118.543 5.72416 118.94 5.38703 119.212 4.95636C119.484 4.52568 119.618 4.0221 119.595 3.51326C119.595 2.0402 118.638 0.883789 116.098 0.883789C115.035 0.883789 113.624 0.931974 113.028 0.959508V11.5497C113.651 11.5944 115.021 11.6254 115.992 11.6254C118.243 11.6254 119.946 10.6239 119.946 8.43494C119.983 7.86592 119.815 7.30241 119.471 6.84741C119.127 6.39243 118.631 6.07634 118.074 5.95689V5.95346ZM114.897 2.67005C115.241 2.63906 115.644 2.6253 116.071 2.6253C117.072 2.6253 117.74 3.08306 117.74 3.94692C117.74 4.92094 117.027 5.36148 116.16 5.36148H114.897V2.67005ZM116.129 9.87703C115.717 9.8761 115.306 9.85081 114.897 9.8013V6.98941H116.222C117.392 6.98941 118.074 7.44717 118.074 8.34201C118.074 9.34701 117.392 9.87703 116.129 9.87703ZM125.735 4.49761C125.329 4.49904 124.923 4.52432 124.52 4.57332V0.928532H122.648V11.5635C123.274 11.5635 124.321 11.5944 125.339 11.5944C128.168 11.5944 129.748 10.1833 129.748 7.93245C129.748 5.85021 128.485 4.49761 125.735 4.49761ZM125.553 9.84949C125.188 9.84949 124.864 9.81852 124.52 9.8013V6.32172C124.944 6.27698 125.308 6.246 125.584 6.246C126.892 6.246 127.773 6.77947 127.773 7.96686C127.776 9.28505 126.919 9.84949 125.553 9.84949ZM132.25 9.48468C132.098 9.46915 131.944 9.48665 131.799 9.53599C131.655 9.58532 131.522 9.66531 131.411 9.77051C131.3 9.87571 131.213 10.0036 131.156 10.1456C131.099 10.2875 131.073 10.4401 131.08 10.5929C131.059 10.8233 131.128 11.0527 131.273 11.2335C131.417 11.4143 131.625 11.5325 131.855 11.5635C131.978 11.5635 132.161 11.5635 132.25 11.443C132.289 11.6811 132.241 11.9252 132.116 12.1314C132.03 12.3254 131.901 12.4981 131.741 12.6372C131.58 12.7764 131.391 12.8786 131.187 12.9367L131.658 13.7593C132.228 13.6153 132.731 13.2798 133.082 12.8092C133.434 12.3387 133.613 11.7615 133.589 11.1746C133.593 10.1971 133.076 9.48468 132.25 9.48468ZM138.177 2.67349H141.619V11.5635H143.488V2.67349H146.929V0.928532H138.18L138.177 2.67349ZM153.073 0.759888C149.807 0.759888 147.542 3.1691 147.542 6.246C147.542 9.56039 149.913 11.7321 153.073 11.7321C156.232 11.7321 158.621 9.43649 158.621 6.246C158.624 2.93162 156.236 0.759888 153.076 0.759888H153.073ZM153.073 9.98373C151.08 9.98373 149.517 8.373 149.517 6.246C149.517 4.0433 151.035 2.50828 153.073 2.50828C155.11 2.50828 156.645 4.0433 156.645 6.246C156.649 8.34201 155.31 9.98373 153.076 9.98373H153.073Z" fill="white"/>
</svg>
