<svg width="163" height="163" viewBox="0 0 163 163" fill="none" xmlns="http://www.w3.org/2000/svg">
<path d="M162.353 83.7513C162.353 66.2497 150.009 51.5949 133.572 47.9894V13.1065C133.572 5.89292 127.703 0.0241699 120.49 0.0241699H52.4614C45.2478 0.0241699 39.3791 5.89292 39.3791 13.1065V41.8878H24.2532L22.6755 48.2092L17.0919 44.8575L3.09904 58.8425L6.45074 64.4313L0.131958 66.009V85.7948L6.45336 87.3725L3.09904 92.9613L17.0893 106.949L22.6729 103.597L24.2532 109.916H39.3791V149.163C39.3791 156.377 45.2478 162.246 52.4614 162.246H120.49C127.703 162.246 133.572 156.377 133.572 149.163V119.513C150.009 115.908 162.353 101.253 162.353 83.7513ZM157.12 83.7513C157.12 88.8508 155.872 93.6547 153.706 97.9169C152.254 93.9216 148.913 90.7792 144.595 89.6986L133.572 86.9408V86.3155C136.832 83.8586 138.805 79.9941 138.805 75.9045V70.6716C138.805 67.0164 137.259 63.4998 134.561 61.0246C131.866 58.5573 128.214 57.3171 124.561 57.6389C117.876 58.2172 112.64 64.1827 112.64 71.2106V75.9019C112.64 79.9915 114.613 83.856 117.873 86.3129V86.9382L106.85 89.696C102.533 90.7766 99.1917 93.919 97.7395 97.9143C95.5731 93.6547 94.325 88.8508 94.325 83.7513C94.325 66.4381 108.41 52.3536 125.723 52.3536C143.036 52.3536 157.12 66.4381 157.12 83.7513ZM117.873 47.9894C116.073 48.3845 114.331 48.9287 112.64 49.5776V46.8877C112.64 44.1263 110.402 41.8878 107.64 41.8878H65.3109C62.5494 41.8878 60.3109 44.1263 60.3109 46.8878V73.5184C60.3109 76.2798 62.5494 78.5184 65.3109 78.5184H89.5107C89.2622 80.2322 89.0921 81.9695 89.0921 83.7513C89.0921 101.253 101.437 115.908 117.873 119.513V120.615C117.873 123.376 115.635 125.615 112.873 125.615H60.0779C57.3165 125.615 55.0779 123.376 55.0779 120.615V41.6548C55.0779 38.8934 57.3165 36.6548 60.0779 36.6548H112.873C115.635 36.6548 117.873 38.8934 117.873 41.6548V47.9894ZM90.6358 73.2854H70.5438C67.7824 73.2854 65.5438 71.0469 65.5438 68.2854V52.1207C65.5438 49.3593 67.7824 47.1207 70.5438 47.1207H102.452C105.189 47.1207 107.407 49.3394 107.407 52.0763V52.0763C99.4167 56.7153 93.3308 64.2665 90.6358 73.2854ZM52.4614 5.25712H120.49C124.817 5.25712 128.339 8.77889 128.339 13.1065V20.956H44.612V13.1065C44.612 8.77889 48.1338 5.25712 52.4614 5.25712ZM39.3791 87.8644C37.7281 88.5918 35.9463 88.9843 34.1461 88.9843C26.9325 88.9843 21.0638 83.1155 21.0638 75.9019C21.0638 68.6883 26.9325 62.8195 34.1461 62.8195C35.9463 62.8195 37.7281 63.212 39.3791 63.9394V87.8644ZM28.3402 104.683L27.0659 99.5836L26.5348 98.1838L23.5468 96.9698L17.9004 100.361L9.68994 92.1476L13.0809 86.4986L11.7727 83.3065L5.36491 81.7079V70.096L11.7648 68.4973L13.0809 65.3052L9.68994 59.6562L17.9004 51.4431L23.5468 54.8341L26.7389 53.5363L28.3402 47.1207H39.3791V58.3846C37.681 57.8744 35.9227 57.5866 34.1461 57.5866C24.0465 57.5866 15.8308 65.8049 15.8308 75.9019C15.8308 85.9989 24.0465 94.2172 34.1461 94.2172C35.9227 94.2172 37.681 93.9294 39.3791 93.4192V104.683H28.3402ZM120.49 157.013H52.4614C48.1338 157.013 44.612 153.491 44.612 149.163V146.314C44.612 143.552 46.8506 141.314 49.612 141.314H128.339V149.163C128.339 153.491 124.817 157.013 120.49 157.013ZM128.339 131.081C128.339 133.842 126.101 136.081 123.339 136.081H49.612C46.8506 136.081 44.612 133.842 44.612 131.081V26.1889H128.339V47.2541C127.471 47.1913 126.607 47.1207 125.723 47.1207C124.838 47.1207 123.975 47.1913 123.106 47.2541V36.4219C123.106 33.6604 120.868 31.4219 118.106 31.4219H54.845C52.0836 31.4219 49.845 33.6604 49.845 36.4219V125.848C49.845 128.609 52.0835 130.848 54.845 130.848H118.106C120.868 130.848 123.106 128.609 123.106 125.848V120.249C123.975 120.311 124.838 120.382 125.723 120.382C126.607 120.382 127.471 120.311 128.339 120.249V131.081ZM125.723 115.149C116.343 115.149 107.933 110.991 102.174 104.45V102.388C102.174 98.7804 104.621 95.6484 108.119 94.7719L119.318 91.9741C121.544 91.4179 123.106 89.4178 123.106 87.1232V84.9155C123.106 83.9842 122.611 83.1232 121.806 82.655V82.655C119.344 81.2212 117.873 78.6963 117.873 75.9019V71.2106C117.873 66.8698 121.01 63.1989 125.014 62.8509C127.259 62.6704 129.386 63.3769 131.026 64.8813C132.643 66.3649 133.572 68.4737 133.572 70.669V75.9019C133.572 78.6963 132.102 81.2212 129.64 82.655V82.655C128.835 83.1232 128.339 83.9842 128.339 84.9155V87.1232C128.339 89.4178 129.901 91.4179 132.127 91.9741L143.326 94.7719C146.825 95.6484 149.271 98.7804 149.271 102.388V104.45C143.512 110.991 135.103 115.149 125.723 115.149Z" fill="#F8FFFF"/>
<path d="M96.9414 13.1065C96.9414 11.6614 98.1128 10.49 99.5579 10.49C101.003 10.49 102.174 11.6614 102.174 13.1065C102.174 14.5515 101.003 15.7229 99.5579 15.7229C98.1128 15.7229 96.9414 14.5515 96.9414 13.1065Z" fill="#F8FFFF"/>
<path d="M70.7766 13.1065C70.7766 11.6614 71.948 10.49 73.3931 10.49H89.0919C90.537 10.49 91.7084 11.6614 91.7084 13.1065C91.7084 14.5515 90.537 15.7229 89.0919 15.7229H73.3931C71.948 15.7229 70.7766 14.5515 70.7766 13.1065Z" fill="#F8FFFF"/>
<path d="M76.0098 149.163C76.0098 147.718 77.1812 146.547 78.6262 146.547H94.3251C95.7701 146.547 96.9416 147.718 96.9416 149.163C96.9416 150.608 95.7701 151.78 94.3251 151.78H78.6262C77.1812 151.78 76.0098 150.608 76.0098 149.163Z" fill="#F8FFFF"/>
<path d="M112.64 149.163C112.64 147.718 113.812 146.547 115.257 146.547C116.702 146.547 117.873 147.718 117.873 149.163C117.873 150.608 116.702 151.78 115.257 151.78C113.812 151.78 112.64 150.608 112.64 149.163Z" fill="#F8FFFF"/>
<path d="M55.0779 149.163C55.0779 147.718 56.2493 146.547 57.6944 146.547C59.1394 146.547 60.3108 147.718 60.3108 149.163C60.3108 150.608 59.1394 151.78 57.6944 151.78C56.2493 151.78 55.0779 150.608 55.0779 149.163Z" fill="#F8FFFF"/>
<path d="M60.311 86.3679C60.311 84.9229 61.4825 83.7515 62.9275 83.7515H81.2428C82.6879 83.7515 83.8593 84.9229 83.8593 86.3679C83.8593 87.813 82.6879 88.9844 81.2428 88.9844H62.9275C61.4825 88.9844 60.311 87.813 60.311 86.3679Z" fill="#F8FFFF"/>
<path d="M60.311 96.8338C60.311 95.3887 61.4825 94.2173 62.9275 94.2173H81.2428C82.6879 94.2173 83.8593 95.3887 83.8593 96.8338C83.8593 98.2788 82.6879 99.4502 81.2428 99.4502H62.9275C61.4825 99.4502 60.311 98.2788 60.311 96.8338Z" fill="#F8FFFF"/>
<path d="M60.311 107.3C60.311 105.855 61.4825 104.684 62.9275 104.684H81.2428C82.6879 104.684 83.8593 105.855 83.8593 107.3C83.8593 108.745 82.6879 109.917 81.2428 109.917H62.9275C61.4825 109.917 60.311 108.745 60.311 107.3Z" fill="#F8FFFF"/>
<path d="M60.311 117.766C60.311 116.321 61.4825 115.149 62.9275 115.149H81.2428C82.6879 115.149 83.8593 116.321 83.8593 117.766C83.8593 119.211 82.6879 120.382 81.2428 120.382H62.9275C61.4825 120.382 60.311 119.211 60.311 117.766Z" fill="#F8FFFF"/>
<path d="M146.654 47.1206C150.982 47.1206 154.504 43.5989 154.504 39.2712C154.504 37.1231 153.631 35.1852 152.225 33.7749C150.732 32.2781 149.271 30.4917 149.271 28.3778V13.1065C149.271 11.6614 148.1 10.49 146.654 10.49C145.209 10.49 144.038 11.6614 144.038 13.1065V28.3778C144.038 30.4917 142.577 32.2781 141.084 33.7749C139.678 35.1852 138.805 37.1231 138.805 39.2712C138.805 43.5989 142.327 47.1206 146.654 47.1206ZM146.654 36.6547C148.096 36.6547 149.271 37.8269 149.271 39.2712C149.271 40.7155 148.096 41.8877 146.654 41.8877C145.213 41.8877 144.038 40.7155 144.038 39.2712C144.038 37.8269 145.213 36.6547 146.654 36.6547Z" fill="#F8FFFF"/>
<path d="M144.038 2.64064C144.038 1.19561 145.209 0.0241699 146.654 0.0241699C148.099 0.0241699 149.271 1.19561 149.271 2.64064C149.271 4.08568 148.099 5.25712 146.654 5.25712C145.209 5.25712 144.038 4.08568 144.038 2.64064Z" fill="#F8FFFF"/>
<path d="M26.2968 115.149C21.9692 115.149 18.4474 118.671 18.4474 122.999C18.4474 125.147 19.3202 127.085 20.7267 128.495C22.2195 129.992 23.6803 131.778 23.6803 133.892V149.163C23.6803 150.608 24.8518 151.78 26.2968 151.78C27.7419 151.78 28.9133 150.608 28.9133 149.163V133.892C28.9133 131.778 30.3742 129.992 31.8669 128.495C33.2734 127.085 34.1462 125.147 34.1462 122.999C34.1462 118.671 30.6245 115.149 26.2968 115.149ZM26.2968 125.615C24.8551 125.615 23.6803 124.443 23.6803 122.999C23.6803 121.554 24.8551 120.382 26.2968 120.382C27.7385 120.382 28.9133 121.554 28.9133 122.999C28.9133 124.443 27.7385 125.615 26.2968 125.615Z" fill="#F8FFFF"/>
<path d="M23.6802 159.629C23.6802 158.184 24.8516 157.012 26.2966 157.012C27.7417 157.012 28.9131 158.184 28.9131 159.629C28.9131 161.074 27.7417 162.245 26.2966 162.245C24.8516 162.245 23.6802 161.074 23.6802 159.629Z" fill="#F8FFFF"/>
</svg>
