<svg width="297" height="20" viewBox="0 0 297 20" fill="none" xmlns="http://www.w3.org/2000/svg">
<path fill-rule="evenodd" clip-rule="evenodd" d="M11.0776 19.7519C5.92112 19.7519 -0.892822 18.3794 0.99052 12.4587L4.70028 0.781256H10.889L7.43824 11.6043C6.69535 13.9541 8.31981 15.4471 12.4426 15.4471C16.6017 15.4471 19.1546 13.9324 19.8999 11.6043L23.3417 0.781256H29.49L25.7766 12.4587C23.9279 18.2955 16.3578 19.7519 11.0776 19.7519ZM48.6986 6.68493C48.2783 8.00814 47.1978 8.48039 46.2943 8.48039H36.4744L37.5446 5.09418H47.2399C48.4123 5.09418 49.0377 5.65141 48.6986 6.68493ZM49.8866 0.781256H32.7366L26.8035 19.4315H32.9889L35.0975 12.7888H39.7566L43.1576 19.4315H51.2561L46.9088 12.1455L48.0261 12.146C50.8517 12.146 53.7158 9.7523 54.7789 6.39385C56.0212 2.52807 53.4854 0.781256 49.8866 0.781256ZM65.2743 12.1097L70.9169 5.73373L72.4859 12.1097H65.2743ZM75.7321 0.642029H69.477L51.3039 19.4315H58.893L61.8571 16.0634H73.4126L74.2239 19.4315H81.9275L75.7321 0.642029ZM83.2078 19.4318L89.1435 0.781256H95.3139L90.8205 14.8975H107.39L104.414 19.4318H83.2078ZM117.339 13.9516H131L128.035 1.88369L117.339 13.9516ZM278.521 19.4154C274.723 19.4154 271.446 19.0559 268.757 18.3437L269.956 16.5439C271.927 17.1917 275.046 18.1089 279.977 18.1089C283.826 18.1089 289.713 17.0127 290.741 14.0175C291.597 11.5191 286.029 11.3209 281.604 10.9782C277.666 10.6583 273.268 10.5577 272.041 8.48818C271.936 8.30966 271.587 7.78316 272.067 6.25306C273.102 2.97038 279.221 0.677888 286.947 0.677888C290.504 0.677888 293.871 1.03352 296.138 1.62987L295.004 3.42689C292.689 2.53789 289.204 2.01325 285.513 2.01325C281.232 2.01325 275.03 3.01918 274.203 5.61586C273.979 6.31324 273.96 6.8332 274.318 7.4163C275.185 8.82682 279.323 8.56489 283.518 8.64846C287.932 8.73701 292.902 8.9372 293.676 11.0173C293.745 11.2026 294.147 11.947 293.675 13.4419C292.219 18.0462 284.582 19.4154 278.521 19.4154ZM242.503 19.1028L248.345 0.832394H268.723L268.293 2.19255H249.939L247.911 8.56489H266.285L265.851 9.93175H247.487L245.006 17.7445H263.359L262.925 19.1028H242.503ZM209.601 19.1028L215.452 0.642029L234.168 16.0468L239.064 0.831771H241.212L235.324 19.3052L216.428 3.57453L211.767 19.0705L209.601 19.1028ZM176.866 19.1028L182.675 0.831771H184.823L179.643 17.1206H196.731L196.094 19.1028H176.866ZM154.134 9.70802H167.429C169.374 9.70802 171.765 8.46214 172.368 6.53401C172.783 5.19085 173.875 2.60025 168.496 2.60025H156.368L154.134 9.70802ZM164.788 19.1017L160.923 11.4565H153.594L151.188 19.1017H149.004L154.74 0.846426H170.442C172.379 0.846426 173.763 1.23714 174.378 2.12364C174.844 2.79686 175.538 4.15779 175.132 5.44716C174.148 8.59451 171.663 11.1323 169.102 11.1323H162.988L167.845 19.0914L164.788 19.1017ZM200.152 19.1028L205.936 0.831771H208.243L202.445 19.1028H200.152ZM138.846 19.1028L144.658 0.831771H146.965L141.138 19.1028H138.846ZM132.2 19.1028L131.271 15.2757H116.263L112.893 19.1028H110.077L126.275 0.856093L130.004 0.832394L134.71 19.0598L132.2 19.1028Z" fill="white"/>
</svg>
